<svg width="18" height="16" viewBox="0 0 18 16" fill="none" xmlns="http://www.w3.org/2000/svg">
<path d="M7.67775 15.6817C7.6754 15.6817 7.67267 15.6817 7.67032 15.6817C7.57345 15.6798 7.48204 15.6383 7.41642 15.5673L0.718763 8.28444C0.603919 8.15944 0.593372 7.97116 0.693763 7.83405C0.794153 7.69733 0.976966 7.65046 1.13087 7.72233L7.26095 10.5926C7.31251 10.6169 7.37345 10.6051 7.4129 10.5641L16.7637 0.791083C16.8902 0.658661 17.0973 0.644208 17.241 0.75827C17.3848 0.872333 17.418 1.07702 17.3176 1.23054L8.01603 15.4798C8.00275 15.5005 7.98712 15.5192 7.96993 15.5368L7.92892 15.5778C7.86212 15.6442 7.7715 15.6817 7.67775 15.6817Z" fill="#7B13FF"/>
</svg>
