<svg width="25" height="13" viewBox="0 0 25 13" fill="none" xmlns="http://www.w3.org/2000/svg">
<path d="M0.286427 7.19126C0.28672 7.19156 0.286964 7.1919 0.287306 7.19219L5.39004 12.2703C5.77232 12.6507 6.39063 12.6493 6.77114 12.267C7.15161 11.8847 7.15015 11.2664 6.76787 10.8859L3.3419 7.47657L24.0234 7.47657C24.5628 7.47657 25 7.03936 25 6.5C25 5.96065 24.5628 5.52344 24.0234 5.52344L3.34194 5.52344L6.76782 2.11407C7.1501 1.7336 7.15156 1.11529 6.77109 0.733011C6.39058 0.350638 5.77222 0.34932 5.38999 0.729691L0.287257 5.80782C0.286964 5.80811 0.28672 5.80845 0.286378 5.80874C-0.0960929 6.19048 -0.0948718 6.8108 0.286427 7.19126Z" fill="#7B13FF"/>
</svg>
