<svg width="52" height="52" viewBox="0 0 52 52" fill="none" xmlns="http://www.w3.org/2000/svg">
<g clip-path="url(#clip0_1_63)">
<path d="M8.66653 0C3.8805 0.00198364 0 3.88248 0 8.66653C0 13.4546 3.8805 17.3351 8.66653 17.3331C13.4526 17.3351 17.3331 13.4546 17.3331 8.66653C17.3336 3.8805 13.4531 0.00198364 8.66653 0ZM8.66653 12.9998C6.27327 13.0018 4.33277 11.0618 4.33277 8.66653C4.33277 6.27525 6.27327 4.33475 8.66653 4.33277C11.0598 4.33575 12.9998 6.27377 12.9998 8.66653C12.9998 11.0618 11.0598 13.0018 8.66653 12.9998Z" fill="#D2F4FF"/>
<path d="M43.3337 34.6666C39.5985 34.6666 36.2178 33.1521 33.7695 30.7053L33.4437 30.3795C35.0341 27.6778 35.0341 24.3244 33.4437 21.6197L33.7695 21.2939C36.2178 18.8481 39.6014 17.3331 43.3337 17.3331C48.1197 17.3336 52.0002 13.4531 52.0002 8.66653C52.0002 3.88 48.1197 0 43.3337 0C38.5476 0 34.6666 3.8805 34.6666 8.66653C34.6666 12.4007 33.1521 15.7819 30.7053 18.2297L30.3795 18.5555C27.0584 16.6001 22.7231 17.0197 19.8711 19.8711C17.0192 22.7231 16.6011 27.0569 18.556 30.379L18.2307 30.7048C15.7829 33.1511 12.3993 34.6656 8.66703 34.6656C3.8805 34.6666 0 38.5476 0 43.3337C0 48.1197 3.8805 52.0002 8.66653 52.0002C13.4526 52.0002 17.3331 48.1197 17.3331 43.3337C17.3331 39.5985 18.8481 36.2178 21.2939 33.7695L21.6197 33.4437C24.3229 35.0341 27.6768 35.0341 30.3795 33.4437L30.7053 33.7695C33.1521 36.2178 34.6666 39.6014 34.6666 43.3337C34.6666 48.1197 38.5476 52.0002 43.3337 52.0002C48.1197 52.0002 52.0002 48.1197 52.0002 43.3337C52.0002 38.5476 48.1197 34.6666 43.3337 34.6666ZM43.3337 4.33376C45.7225 4.33376 47.6664 6.27823 47.6664 8.66703C47.6664 11.0558 45.7225 13.0008 43.3337 13.0008C40.9444 12.9998 38.9999 11.0553 38.9999 8.66653C38.9999 6.27773 40.9444 4.33376 43.3337 4.33376ZM8.66653 47.6664C6.27773 47.6664 4.33277 45.7225 4.33277 43.3337C4.33277 40.9444 6.27773 38.9999 8.66653 38.9999C11.0553 38.9999 12.9998 40.9444 12.9998 43.3337C12.9998 45.7225 11.0553 47.6664 8.66653 47.6664ZM26.0001 30.3334C23.6068 30.3334 21.6663 28.3934 21.6663 26.0001C21.6663 23.6068 23.6068 21.6663 26.0001 21.6663C28.3934 21.6663 30.3334 23.6068 30.3334 26.0001C30.3334 28.3934 28.3934 30.3334 26.0001 30.3334ZM43.3337 47.6664C40.9444 47.6664 38.9999 45.7225 38.9999 43.3337C38.9999 40.9444 40.9444 38.9999 43.3337 38.9999C45.7225 38.9999 47.6664 40.9444 47.6664 43.3337C47.6664 45.7225 45.7225 47.6664 43.3337 47.6664Z" fill="#D2F4FF"/>
</g>
<defs>
<clipPath id="clip0_1_63">
<rect width="52" height="52" fill="white"/>
</clipPath>
</defs>
</svg>
